<svg width="98" height="35" viewBox="0 0 98 35" fill="none" xmlns="http://www.w3.org/2000/svg">
<rect width="98" height="35" rx="8" fill="#0D6EFD"/>
<path d="M12.2281 13.84C12.3748 13.7733 12.6015 13.7 12.9081 13.62C13.2281 13.5267 13.5481 13.48 13.8681 13.48C14.4281 13.48 14.8948 13.5667 15.2681 13.74C15.6415 13.9 15.8681 14.14 15.9481 14.46C16.0948 15.0067 16.2281 15.52 16.3481 16C16.4815 16.4667 16.6081 16.92 16.7281 17.36C16.8481 17.7867 16.9615 18.2133 17.0681 18.64C17.1881 19.0667 17.3015 19.5133 17.4081 19.98H17.5081C17.6281 19.1667 17.7348 18.3933 17.8281 17.66C17.9215 16.9133 18.0081 16.1867 18.0881 15.48C18.1681 14.76 18.2481 14.0533 18.3281 13.36C18.4081 12.6533 18.4881 11.94 18.5681 11.22C19.0615 10.94 19.5881 10.8 20.1481 10.8C20.6415 10.8 21.0681 10.9067 21.4281 11.12C21.7881 11.3333 21.9681 11.6933 21.9681 12.2C21.9681 12.4933 21.9348 12.9133 21.8681 13.46C21.8148 13.9933 21.7348 14.5933 21.6281 15.26C21.5348 15.9267 21.4215 16.6267 21.2881 17.36C21.1548 18.0933 21.0148 18.7933 20.8681 19.46C20.7215 20.1267 20.5681 20.7333 20.4081 21.28C20.2615 21.8133 20.1215 22.2267 19.9881 22.52C19.7881 22.7067 19.4615 22.86 19.0081 22.98C18.5548 23.1 18.0881 23.16 17.6081 23.16C16.9815 23.16 16.4481 23.08 16.0081 22.92C15.5815 22.7467 15.3215 22.5067 15.2281 22.2C15.0548 21.6667 14.8681 21.0333 14.6681 20.3C14.4681 19.5667 14.2548 18.76 14.0281 17.88C13.8415 18.7467 13.6481 19.5933 13.4481 20.42C13.2481 21.2467 13.0681 21.9467 12.9081 22.52C12.7081 22.7067 12.4081 22.86 12.0081 22.98C11.6081 23.1 11.1681 23.16 10.6881 23.16C10.0881 23.16 9.54146 23.08 9.04813 22.92C8.56813 22.7467 8.25479 22.5067 8.10813 22.2C7.98813 21.96 7.85479 21.6067 7.70813 21.14C7.57479 20.66 7.43479 20.12 7.28813 19.52C7.14146 18.9067 6.98813 18.2467 6.82813 17.54C6.68146 16.8333 6.54146 16.1267 6.40813 15.42C6.28813 14.7133 6.17479 14.0267 6.06813 13.36C5.96146 12.68 5.88146 12.06 5.82813 11.5C6.01479 11.3267 6.27479 11.1667 6.60813 11.02C6.94146 10.8733 7.30146 10.8 7.68813 10.8C8.19479 10.8 8.60813 10.9133 8.92813 11.14C9.26146 11.3533 9.46813 11.72 9.54813 12.24C9.76146 13.6 9.93479 14.7333 10.0681 15.64C10.2148 16.5467 10.3281 17.2933 10.4081 17.88C10.5015 18.4533 10.5681 18.9 10.6081 19.22C10.6481 19.54 10.6881 19.7933 10.7281 19.98H10.8281C10.9481 19.4467 11.0615 18.9533 11.1681 18.5C11.2748 18.0467 11.3815 17.5933 11.4881 17.14C11.6081 16.6733 11.7281 16.18 11.8481 15.66C11.9681 15.1267 12.0948 14.52 12.2281 13.84ZM27.7938 20.84C28.0204 20.84 28.2671 20.82 28.5338 20.78C28.8138 20.7267 29.0204 20.66 29.1538 20.58V18.98L27.7138 19.1C27.3404 19.1267 27.0338 19.2067 26.7938 19.34C26.5538 19.4733 26.4338 19.6733 26.4338 19.94C26.4338 20.2067 26.5338 20.4267 26.7338 20.6C26.9471 20.76 27.3004 20.84 27.7938 20.84ZM27.6338 12.98C28.3538 12.98 29.0071 13.0533 29.5938 13.2C30.1938 13.3467 30.7004 13.5733 31.1138 13.88C31.5404 14.1733 31.8671 14.5533 32.0938 15.02C32.3204 15.4733 32.4338 16.0133 32.4338 16.64V21.12C32.4338 21.4667 32.3338 21.7533 32.1338 21.98C31.9471 22.1933 31.7204 22.38 31.4538 22.54C30.5871 23.06 29.3671 23.32 27.7938 23.32C27.0871 23.32 26.4471 23.2533 25.8738 23.12C25.3138 22.9867 24.8271 22.7867 24.4138 22.52C24.0138 22.2533 23.7004 21.9133 23.4738 21.5C23.2604 21.0867 23.1538 20.6067 23.1538 20.06C23.1538 19.14 23.4271 18.4333 23.9738 17.94C24.5204 17.4467 25.3671 17.14 26.5138 17.02L29.1338 16.74V16.6C29.1338 16.2133 28.9604 15.94 28.6138 15.78C28.2804 15.6067 27.7938 15.52 27.1538 15.52C26.6471 15.52 26.1538 15.5733 25.6738 15.68C25.1938 15.7867 24.7604 15.92 24.3738 16.08C24.2004 15.96 24.0538 15.78 23.9338 15.54C23.8138 15.2867 23.7538 15.0267 23.7538 14.76C23.7538 14.4133 23.8338 14.14 23.9938 13.94C24.1671 13.7267 24.4271 13.5467 24.7738 13.4C25.1604 13.2533 25.6138 13.1467 26.1338 13.08C26.6671 13.0133 27.1671 12.98 27.6338 12.98ZM40.6727 16.84C40.6727 16.4267 40.5527 16.1267 40.3127 15.94C40.086 15.74 39.7727 15.64 39.3727 15.64C39.106 15.64 38.8393 15.6733 38.5727 15.74C38.3193 15.8067 38.0993 15.9067 37.9127 16.04V22.98C37.7793 23.02 37.566 23.06 37.2727 23.1C36.9927 23.14 36.6993 23.16 36.3927 23.16C36.0993 23.16 35.8327 23.14 35.5927 23.1C35.366 23.06 35.1727 22.98 35.0127 22.86C34.8527 22.74 34.726 22.58 34.6327 22.38C34.5527 22.1667 34.5127 21.8933 34.5127 21.56V15.56C34.5127 15.2 34.586 14.9067 34.7327 14.68C34.8927 14.4533 35.106 14.2467 35.3727 14.06C35.826 13.74 36.3927 13.48 37.0727 13.28C37.766 13.08 38.5327 12.98 39.3727 12.98C40.8793 12.98 42.0393 13.3133 42.8527 13.98C43.666 14.6333 44.0727 15.5467 44.0727 16.72V22.98C43.9393 23.02 43.726 23.06 43.4327 23.1C43.1527 23.14 42.8593 23.16 42.5527 23.16C42.2593 23.16 41.9927 23.14 41.7527 23.1C41.526 23.06 41.3327 22.98 41.1727 22.86C41.0127 22.74 40.886 22.58 40.7927 22.38C40.7127 22.1667 40.6727 21.8933 40.6727 21.56V16.84ZM52.3328 16.84C52.3328 16.4267 52.2128 16.1267 51.9728 15.94C51.7461 15.74 51.4328 15.64 51.0328 15.64C50.7661 15.64 50.4995 15.6733 50.2328 15.74C49.9795 15.8067 49.7595 15.9067 49.5728 16.04V22.98C49.4395 23.02 49.2261 23.06 48.9328 23.1C48.6528 23.14 48.3595 23.16 48.0528 23.16C47.7595 23.16 47.4928 23.14 47.2528 23.1C47.0261 23.06 46.8328 22.98 46.6728 22.86C46.5128 22.74 46.3861 22.58 46.2928 22.38C46.2128 22.1667 46.1728 21.8933 46.1728 21.56V15.56C46.1728 15.2 46.2461 14.9067 46.3928 14.68C46.5528 14.4533 46.7661 14.2467 47.0328 14.06C47.4861 13.74 48.0528 13.48 48.7328 13.28C49.4261 13.08 50.1928 12.98 51.0328 12.98C52.5395 12.98 53.6995 13.3133 54.5128 13.98C55.3261 14.6333 55.7328 15.5467 55.7328 16.72V22.98C55.5995 23.02 55.3861 23.06 55.0928 23.1C54.8128 23.14 54.5195 23.16 54.2128 23.16C53.9195 23.16 53.6528 23.14 53.4128 23.1C53.1861 23.06 52.9928 22.98 52.8328 22.86C52.6728 22.74 52.5461 22.58 52.4528 22.38C52.3728 22.1667 52.3328 21.8933 52.3328 21.56V16.84ZM61.993 20.84C62.2196 20.84 62.4663 20.82 62.733 20.78C63.013 20.7267 63.2196 20.66 63.353 20.58V18.98L61.913 19.1C61.5396 19.1267 61.233 19.2067 60.993 19.34C60.753 19.4733 60.633 19.6733 60.633 19.94C60.633 20.2067 60.733 20.4267 60.933 20.6C61.1463 20.76 61.4996 20.84 61.993 20.84ZM61.833 12.98C62.553 12.98 63.2063 13.0533 63.793 13.2C64.393 13.3467 64.8996 13.5733 65.313 13.88C65.7396 14.1733 66.0663 14.5533 66.293 15.02C66.5196 15.4733 66.633 16.0133 66.633 16.64V21.12C66.633 21.4667 66.533 21.7533 66.333 21.98C66.1463 22.1933 65.9196 22.38 65.653 22.54C64.7863 23.06 63.5663 23.32 61.993 23.32C61.2863 23.32 60.6463 23.2533 60.073 23.12C59.513 22.9867 59.0263 22.7867 58.613 22.52C58.213 22.2533 57.8996 21.9133 57.673 21.5C57.4596 21.0867 57.353 20.6067 57.353 20.06C57.353 19.14 57.6263 18.4333 58.173 17.94C58.7196 17.4467 59.5663 17.14 60.713 17.02L63.333 16.74V16.6C63.333 16.2133 63.1596 15.94 62.813 15.78C62.4796 15.6067 61.993 15.52 61.353 15.52C60.8463 15.52 60.353 15.5733 59.873 15.68C59.393 15.7867 58.9596 15.92 58.573 16.08C58.3996 15.96 58.253 15.78 58.133 15.54C58.013 15.2867 57.953 15.0267 57.953 14.76C57.953 14.4133 58.033 14.14 58.193 13.94C58.3663 13.7267 58.6263 13.5467 58.973 13.4C59.3596 13.2533 59.813 13.1467 60.333 13.08C60.8663 13.0133 61.3663 12.98 61.833 12.98ZM79.9519 21.02C79.9519 21.4333 79.8785 21.74 79.7319 21.94C79.5852 22.14 79.3519 22.3333 79.0319 22.52C78.8452 22.6267 78.6119 22.7333 78.3319 22.84C78.0519 22.9333 77.7452 23.0133 77.4119 23.08C77.0785 23.16 76.7252 23.22 76.3519 23.26C75.9919 23.3 75.6319 23.32 75.2719 23.32C74.3119 23.32 73.4119 23.1933 72.5719 22.94C71.7319 22.6733 70.9985 22.28 70.3719 21.76C69.7585 21.2267 69.2719 20.5667 68.9119 19.78C68.5519 18.9933 68.3719 18.08 68.3719 17.04C68.3719 15.9467 68.5652 14.9933 68.9519 14.18C69.3519 13.3667 69.8719 12.6933 70.5119 12.16C71.1652 11.6133 71.9052 11.2067 72.7319 10.94C73.5719 10.6733 74.4319 10.54 75.3119 10.54C76.5785 10.54 77.5785 10.7467 78.3119 11.16C79.0585 11.56 79.4319 12.0867 79.4319 12.74C79.4319 13.0867 79.3452 13.3867 79.1719 13.64C78.9985 13.8933 78.7985 14.0933 78.5719 14.24C78.2385 14.04 77.8185 13.8467 77.3119 13.66C76.8185 13.46 76.2585 13.36 75.6319 13.36C74.5119 13.36 73.6185 13.68 72.9519 14.32C72.2985 14.96 71.9719 15.8467 71.9719 16.98C71.9719 17.5933 72.0585 18.1267 72.2319 18.58C72.4185 19.02 72.6652 19.3867 72.9719 19.68C73.2785 19.96 73.6319 20.1733 74.0319 20.32C74.4319 20.4533 74.8585 20.52 75.3119 20.52C75.6052 20.52 75.8652 20.4933 76.0919 20.44C76.3185 20.3867 76.4919 20.3267 76.6119 20.26V18.38H74.4719C74.3919 18.2333 74.3119 18.04 74.2319 17.8C74.1652 17.56 74.1319 17.3067 74.1319 17.04C74.1319 16.56 74.2385 16.2133 74.4519 16C74.6785 15.7867 74.9652 15.68 75.3119 15.68H78.6919C79.0919 15.68 79.3985 15.7933 79.6119 16.02C79.8385 16.2333 79.9519 16.54 79.9519 16.94V21.02ZM92.0531 18.14C92.0531 18.9667 91.9265 19.7067 91.6731 20.36C91.4198 21 91.0598 21.54 90.5931 21.98C90.1398 22.42 89.5931 22.7533 88.9531 22.98C88.3131 23.2067 87.5998 23.32 86.8131 23.32C86.0265 23.32 85.3131 23.2 84.6731 22.96C84.0331 22.72 83.4798 22.38 83.0131 21.94C82.5598 21.4867 82.2065 20.94 81.9531 20.3C81.6998 19.66 81.5731 18.94 81.5731 18.14C81.5731 17.3533 81.6998 16.64 81.9531 16C82.2065 15.36 82.5598 14.82 83.0131 14.38C83.4798 13.9267 84.0331 13.58 84.6731 13.34C85.3131 13.1 86.0265 12.98 86.8131 12.98C87.5998 12.98 88.3131 13.1067 88.9531 13.36C89.5931 13.6 90.1398 13.9467 90.5931 14.4C91.0598 14.84 91.4198 15.38 91.6731 16.02C91.9265 16.66 92.0531 17.3667 92.0531 18.14ZM85.0531 18.14C85.0531 18.9533 85.2065 19.58 85.5131 20.02C85.8331 20.4467 86.2731 20.66 86.8331 20.66C87.3931 20.66 87.8198 20.44 88.1131 20C88.4198 19.56 88.5731 18.94 88.5731 18.14C88.5731 17.34 88.4198 16.7267 88.1131 16.3C87.8065 15.86 87.3731 15.64 86.8131 15.64C86.2531 15.64 85.8198 15.86 85.5131 16.3C85.2065 16.7267 85.0531 17.34 85.0531 18.14Z" fill="white"/>
</svg>
